<mxfile host="app.diagrams.net" modified="2023-10-16T14:35:05.635Z" agent="Mozilla/5.0 (Windows NT 10.0; Win64; x64) AppleWebKit/537.36 (KHTML, like Gecko) Chrome/117.0.0.0 Safari/537.36" etag="NH8bTgu-lq-rCRtWrJzC" version="22.0.4" type="github">
  <diagram name="Página-1" id="nAvbWC1fawTMlBLhIa62">
    <mxGraphModel dx="2003" dy="1937" grid="1" gridSize="10" guides="1" tooltips="1" connect="1" arrows="1" fold="1" page="1" pageScale="1" pageWidth="827" pageHeight="1169" math="0" shadow="0">
      <root>
        <mxCell id="0" />
        <mxCell id="1" parent="0" />
        <mxCell id="8W0M6XuyLA1WG0mMxSoz-59" style="edgeStyle=orthogonalEdgeStyle;rounded=0;orthogonalLoop=1;jettySize=auto;html=1;" edge="1" parent="1" source="8W0M6XuyLA1WG0mMxSoz-1" target="8W0M6XuyLA1WG0mMxSoz-8">
          <mxGeometry relative="1" as="geometry" />
        </mxCell>
        <mxCell id="8W0M6XuyLA1WG0mMxSoz-1" value="SFTP&lt;br&gt;170.231.81.164" style="shape=cylinder3;whiteSpace=wrap;html=1;boundedLbl=1;backgroundOutline=1;size=15;" vertex="1" parent="1">
          <mxGeometry x="900" y="440" width="90" height="100" as="geometry" />
        </mxCell>
        <mxCell id="8W0M6XuyLA1WG0mMxSoz-4" value="se tiene dos conexión&lt;br&gt;&lt;br&gt;INSUMOS" style="shape=note;whiteSpace=wrap;html=1;backgroundOutline=1;darkOpacity=0.05;" vertex="1" parent="1">
          <mxGeometry x="880" y="570" width="120" height="110" as="geometry" />
        </mxCell>
        <mxCell id="8W0M6XuyLA1WG0mMxSoz-7" value="CLARO&lt;br&gt;DATA 2023" style="strokeWidth=2;html=1;shape=mxgraph.flowchart.stored_data;whiteSpace=wrap;" vertex="1" parent="1">
          <mxGeometry x="700" y="530" width="100" height="60" as="geometry" />
        </mxCell>
        <mxCell id="8W0M6XuyLA1WG0mMxSoz-8" value="CLAROBK1&lt;br&gt;DATA 2019 A 2022" style="strokeWidth=2;html=1;shape=mxgraph.flowchart.stored_data;whiteSpace=wrap;" vertex="1" parent="1">
          <mxGeometry x="690" y="430" width="120" height="60" as="geometry" />
        </mxCell>
        <mxCell id="8W0M6XuyLA1WG0mMxSoz-29" style="edgeStyle=orthogonalEdgeStyle;rounded=0;orthogonalLoop=1;jettySize=auto;html=1;" edge="1" parent="1" source="8W0M6XuyLA1WG0mMxSoz-13" target="8W0M6XuyLA1WG0mMxSoz-16">
          <mxGeometry relative="1" as="geometry" />
        </mxCell>
        <mxCell id="8W0M6XuyLA1WG0mMxSoz-30" style="edgeStyle=orthogonalEdgeStyle;rounded=0;orthogonalLoop=1;jettySize=auto;html=1;" edge="1" parent="1" source="8W0M6XuyLA1WG0mMxSoz-13" target="8W0M6XuyLA1WG0mMxSoz-15">
          <mxGeometry relative="1" as="geometry" />
        </mxCell>
        <mxCell id="8W0M6XuyLA1WG0mMxSoz-13" value="&lt;br&gt;&lt;br&gt;AIRFLOW&lt;br&gt;LIMFISAIRMV01&lt;br&gt;172.19.245.128" style="strokeWidth=2;html=1;shape=mxgraph.flowchart.database;whiteSpace=wrap;" vertex="1" parent="1">
          <mxGeometry x="60" y="120" width="110" height="117.5" as="geometry" />
        </mxCell>
        <mxCell id="8W0M6XuyLA1WG0mMxSoz-47" style="edgeStyle=orthogonalEdgeStyle;rounded=0;orthogonalLoop=1;jettySize=auto;html=1;entryX=0;entryY=0.75;entryDx=0;entryDy=0;" edge="1" parent="1" source="8W0M6XuyLA1WG0mMxSoz-14" target="8W0M6XuyLA1WG0mMxSoz-21">
          <mxGeometry relative="1" as="geometry" />
        </mxCell>
        <mxCell id="8W0M6XuyLA1WG0mMxSoz-48" style="edgeStyle=orthogonalEdgeStyle;rounded=0;orthogonalLoop=1;jettySize=auto;html=1;" edge="1" parent="1" source="8W0M6XuyLA1WG0mMxSoz-14">
          <mxGeometry relative="1" as="geometry">
            <mxPoint x="660" y="87.5" as="targetPoint" />
          </mxGeometry>
        </mxCell>
        <mxCell id="8W0M6XuyLA1WG0mMxSoz-49" style="edgeStyle=orthogonalEdgeStyle;rounded=0;orthogonalLoop=1;jettySize=auto;html=1;entryX=0;entryY=0.75;entryDx=0;entryDy=0;" edge="1" parent="1" source="8W0M6XuyLA1WG0mMxSoz-14" target="8W0M6XuyLA1WG0mMxSoz-23">
          <mxGeometry relative="1" as="geometry" />
        </mxCell>
        <mxCell id="8W0M6XuyLA1WG0mMxSoz-14" value="&lt;br&gt;&lt;br&gt;COMPONENTES&lt;br&gt;(shell,jar,ini)&lt;br&gt;V_EGDEO6&lt;br&gt;172.19.233.27" style="strokeWidth=2;html=1;shape=mxgraph.flowchart.database;whiteSpace=wrap;" vertex="1" parent="1">
          <mxGeometry x="475" y="30" width="110" height="115" as="geometry" />
        </mxCell>
        <mxCell id="8W0M6XuyLA1WG0mMxSoz-31" style="edgeStyle=orthogonalEdgeStyle;rounded=0;orthogonalLoop=1;jettySize=auto;html=1;" edge="1" parent="1" source="8W0M6XuyLA1WG0mMxSoz-15" target="8W0M6XuyLA1WG0mMxSoz-20">
          <mxGeometry relative="1" as="geometry" />
        </mxCell>
        <mxCell id="8W0M6XuyLA1WG0mMxSoz-15" value="ingesta_soporte_sga_contratoservicio_task" style="rounded=1;whiteSpace=wrap;html=1;absoluteArcSize=1;arcSize=14;strokeWidth=2;" vertex="1" parent="1">
          <mxGeometry x="209" y="237.5" width="246" height="40" as="geometry" />
        </mxCell>
        <mxCell id="8W0M6XuyLA1WG0mMxSoz-16" value="generar_config_malla_taask" style="rounded=1;whiteSpace=wrap;html=1;absoluteArcSize=1;arcSize=14;strokeWidth=2;" vertex="1" parent="1">
          <mxGeometry x="229" y="90" width="200" height="40" as="geometry" />
        </mxCell>
        <mxCell id="8W0M6XuyLA1WG0mMxSoz-17" value="MALLA M042&lt;br&gt;1.- Tarea de config&lt;br&gt;2.- Tarea procesamiente" style="shape=note;whiteSpace=wrap;html=1;backgroundOutline=1;darkOpacity=0.05;" vertex="1" parent="1">
          <mxGeometry x="60" y="-17.5" width="140" height="120" as="geometry" />
        </mxCell>
        <mxCell id="8W0M6XuyLA1WG0mMxSoz-35" style="edgeStyle=orthogonalEdgeStyle;rounded=0;orthogonalLoop=1;jettySize=auto;html=1;" edge="1" parent="1" source="8W0M6XuyLA1WG0mMxSoz-20" target="8W0M6XuyLA1WG0mMxSoz-28">
          <mxGeometry relative="1" as="geometry" />
        </mxCell>
        <mxCell id="8W0M6XuyLA1WG0mMxSoz-20" value="&lt;br&gt;&lt;br&gt;COMPONENTES&lt;br&gt;(shell,jar,ini)&lt;br&gt;V_EGDEO6&lt;br&gt;172.19.233.27" style="strokeWidth=2;html=1;shape=mxgraph.flowchart.database;whiteSpace=wrap;" vertex="1" parent="1">
          <mxGeometry x="485" y="210" width="110" height="115" as="geometry" />
        </mxCell>
        <mxCell id="8W0M6XuyLA1WG0mMxSoz-25" style="edgeStyle=orthogonalEdgeStyle;rounded=0;orthogonalLoop=1;jettySize=auto;html=1;entryX=0;entryY=0.5;entryDx=0;entryDy=0;" edge="1" parent="1" source="8W0M6XuyLA1WG0mMxSoz-21" target="8W0M6XuyLA1WG0mMxSoz-24">
          <mxGeometry relative="1" as="geometry" />
        </mxCell>
        <mxCell id="8W0M6XuyLA1WG0mMxSoz-21" value="tabla soporte_origem" style="swimlane;fontStyle=0;childLayout=stackLayout;horizontal=1;startSize=20;fillColor=#ffffff;horizontalStack=0;resizeParent=1;resizeParentMax=0;resizeLast=0;collapsible=0;marginBottom=0;swimlaneFillColor=#ffffff;" vertex="1" parent="1">
          <mxGeometry x="635" y="-17.5" width="155" height="47.5" as="geometry" />
        </mxCell>
        <mxCell id="8W0M6XuyLA1WG0mMxSoz-26" style="edgeStyle=orthogonalEdgeStyle;rounded=0;orthogonalLoop=1;jettySize=auto;html=1;entryX=0;entryY=0.75;entryDx=0;entryDy=0;" edge="1" parent="1" source="8W0M6XuyLA1WG0mMxSoz-22" target="8W0M6XuyLA1WG0mMxSoz-24">
          <mxGeometry relative="1" as="geometry" />
        </mxCell>
        <mxCell id="8W0M6XuyLA1WG0mMxSoz-22" value="tabla malla_wf_soportes" style="swimlane;fontStyle=0;childLayout=stackLayout;horizontal=1;startSize=20;fillColor=#ffffff;horizontalStack=0;resizeParent=1;resizeParentMax=0;resizeLast=0;collapsible=0;marginBottom=0;swimlaneFillColor=#ffffff;" vertex="1" parent="1">
          <mxGeometry x="635" y="52.5" width="160" height="47.5" as="geometry" />
        </mxCell>
        <mxCell id="8W0M6XuyLA1WG0mMxSoz-27" style="edgeStyle=orthogonalEdgeStyle;rounded=0;orthogonalLoop=1;jettySize=auto;html=1;entryX=0;entryY=1;entryDx=0;entryDy=0;" edge="1" parent="1" source="8W0M6XuyLA1WG0mMxSoz-23" target="8W0M6XuyLA1WG0mMxSoz-24">
          <mxGeometry relative="1" as="geometry" />
        </mxCell>
        <mxCell id="8W0M6XuyLA1WG0mMxSoz-23" value="tabla origen_conex_fs" style="swimlane;fontStyle=0;childLayout=stackLayout;horizontal=1;startSize=20;fillColor=#ffffff;horizontalStack=0;resizeParent=1;resizeParentMax=0;resizeLast=0;collapsible=0;marginBottom=0;swimlaneFillColor=#ffffff;" vertex="1" parent="1">
          <mxGeometry x="635" y="120" width="160" height="50" as="geometry" />
        </mxCell>
        <mxCell id="8W0M6XuyLA1WG0mMxSoz-24" value="temp_conf_ing_soportes_m042_m_rdv_ing_soporte_multi" style="swimlane;fontStyle=0;childLayout=stackLayout;horizontal=1;startSize=20;fillColor=#ffffff;horizontalStack=0;resizeParent=1;resizeParentMax=0;resizeLast=0;collapsible=0;marginBottom=0;swimlaneFillColor=#ffffff;" vertex="1" parent="1">
          <mxGeometry x="900" y="40" width="320" height="40" as="geometry" />
        </mxCell>
        <mxCell id="8W0M6XuyLA1WG0mMxSoz-39" style="edgeStyle=orthogonalEdgeStyle;rounded=0;orthogonalLoop=1;jettySize=auto;html=1;" edge="1" parent="1" source="8W0M6XuyLA1WG0mMxSoz-28">
          <mxGeometry relative="1" as="geometry">
            <mxPoint x="890" y="250" as="targetPoint" />
          </mxGeometry>
        </mxCell>
        <mxCell id="8W0M6XuyLA1WG0mMxSoz-40" style="edgeStyle=orthogonalEdgeStyle;rounded=0;orthogonalLoop=1;jettySize=auto;html=1;entryX=0;entryY=0.75;entryDx=0;entryDy=0;" edge="1" parent="1" source="8W0M6XuyLA1WG0mMxSoz-28" target="8W0M6XuyLA1WG0mMxSoz-34">
          <mxGeometry relative="1" as="geometry" />
        </mxCell>
        <mxCell id="8W0M6XuyLA1WG0mMxSoz-28" value="JAR&lt;br&gt;cmp-common-rdv-ingesta-soportes-scala" style="shape=ellipse;html=1;dashed=0;whiteSpace=wrap;perimeter=ellipsePerimeter;" vertex="1" parent="1">
          <mxGeometry x="650" y="248" width="190" height="62" as="geometry" />
        </mxCell>
        <mxCell id="8W0M6XuyLA1WG0mMxSoz-32" style="edgeStyle=orthogonalEdgeStyle;rounded=0;orthogonalLoop=1;jettySize=auto;html=1;entryX=0.02;entryY=0.722;entryDx=0;entryDy=0;entryPerimeter=0;" edge="1" parent="1" source="8W0M6XuyLA1WG0mMxSoz-16" target="8W0M6XuyLA1WG0mMxSoz-14">
          <mxGeometry relative="1" as="geometry" />
        </mxCell>
        <mxCell id="8W0M6XuyLA1WG0mMxSoz-43" style="edgeStyle=orthogonalEdgeStyle;rounded=0;orthogonalLoop=1;jettySize=auto;html=1;" edge="1" parent="1" source="8W0M6XuyLA1WG0mMxSoz-34">
          <mxGeometry relative="1" as="geometry">
            <mxPoint x="1240" y="300" as="targetPoint" />
          </mxGeometry>
        </mxCell>
        <mxCell id="8W0M6XuyLA1WG0mMxSoz-34" value="fecha_ingesta_sftp" style="swimlane;fontStyle=0;childLayout=stackLayout;horizontal=1;startSize=20;fillColor=#ffffff;horizontalStack=0;resizeParent=1;resizeParentMax=0;resizeLast=0;collapsible=0;marginBottom=0;swimlaneFillColor=#ffffff;" vertex="1" parent="1">
          <mxGeometry x="880" y="310" width="260" height="51" as="geometry" />
        </mxCell>
        <mxCell id="8W0M6XuyLA1WG0mMxSoz-42" style="edgeStyle=orthogonalEdgeStyle;rounded=0;orthogonalLoop=1;jettySize=auto;html=1;entryX=0;entryY=0.5;entryDx=0;entryDy=0;" edge="1" parent="1" source="8W0M6XuyLA1WG0mMxSoz-38" target="8W0M6XuyLA1WG0mMxSoz-41">
          <mxGeometry relative="1" as="geometry" />
        </mxCell>
        <mxCell id="8W0M6XuyLA1WG0mMxSoz-38" value="temp_conf_ing_soportes_m042_m_rdv_ing_soporte_multi" style="swimlane;fontStyle=0;childLayout=stackLayout;horizontal=1;startSize=20;fillColor=#ffffff;horizontalStack=0;resizeParent=1;resizeParentMax=0;resizeLast=0;collapsible=0;marginBottom=0;swimlaneFillColor=#ffffff;" vertex="1" parent="1">
          <mxGeometry x="870" y="210" width="310" height="50" as="geometry" />
        </mxCell>
        <mxCell id="8W0M6XuyLA1WG0mMxSoz-45" style="edgeStyle=orthogonalEdgeStyle;rounded=0;orthogonalLoop=1;jettySize=auto;html=1;entryX=0;entryY=0.5;entryDx=0;entryDy=0;" edge="1" parent="1" source="8W0M6XuyLA1WG0mMxSoz-41" target="8W0M6XuyLA1WG0mMxSoz-44">
          <mxGeometry relative="1" as="geometry" />
        </mxCell>
        <mxCell id="8W0M6XuyLA1WG0mMxSoz-51" value="NO" style="edgeLabel;html=1;align=center;verticalAlign=middle;resizable=0;points=[];" vertex="1" connectable="0" parent="8W0M6XuyLA1WG0mMxSoz-45">
          <mxGeometry x="-0.15" y="1" relative="1" as="geometry">
            <mxPoint as="offset" />
          </mxGeometry>
        </mxCell>
        <mxCell id="8W0M6XuyLA1WG0mMxSoz-55" style="edgeStyle=orthogonalEdgeStyle;rounded=0;orthogonalLoop=1;jettySize=auto;html=1;entryX=0;entryY=0.75;entryDx=0;entryDy=0;" edge="1" parent="1" source="8W0M6XuyLA1WG0mMxSoz-41" target="8W0M6XuyLA1WG0mMxSoz-54">
          <mxGeometry relative="1" as="geometry" />
        </mxCell>
        <mxCell id="8W0M6XuyLA1WG0mMxSoz-56" value="SI" style="edgeLabel;html=1;align=center;verticalAlign=middle;resizable=0;points=[];" vertex="1" connectable="0" parent="8W0M6XuyLA1WG0mMxSoz-55">
          <mxGeometry x="0.0898" y="-4" relative="1" as="geometry">
            <mxPoint as="offset" />
          </mxGeometry>
        </mxCell>
        <mxCell id="8W0M6XuyLA1WG0mMxSoz-41" value="" style="shape=rhombus;html=1;dashed=0;whiteSpace=wrap;perimeter=rhombusPerimeter;" vertex="1" parent="1">
          <mxGeometry x="1241" y="270" width="60" height="50" as="geometry" />
        </mxCell>
        <mxCell id="8W0M6XuyLA1WG0mMxSoz-44" value="tmp_list_ruta_src_remote_soporte_sga_contratosrvicio" style="swimlane;fontStyle=0;childLayout=stackLayout;horizontal=1;startSize=20;fillColor=#ffffff;horizontalStack=0;resizeParent=1;resizeParentMax=0;resizeLast=0;collapsible=0;marginBottom=0;swimlaneFillColor=#ffffff;" vertex="1" parent="1">
          <mxGeometry x="1370" y="219" width="300" height="51" as="geometry" />
        </mxCell>
        <mxCell id="8W0M6XuyLA1WG0mMxSoz-46" value="tabla temporal creada de los cruce de las tablas de configuracion" style="shape=note;whiteSpace=wrap;html=1;backgroundOutline=1;darkOpacity=0.05;" vertex="1" parent="1">
          <mxGeometry x="890" y="-130" width="140" height="120" as="geometry" />
        </mxCell>
        <mxCell id="8W0M6XuyLA1WG0mMxSoz-50" value="el proceso ingresa al metodo generaFileListRutaSFTP, pero no recorre el codigo para obtener la tabla temporal&amp;nbsp;" style="shape=note;whiteSpace=wrap;html=1;backgroundOutline=1;darkOpacity=0.05;" vertex="1" parent="1">
          <mxGeometry x="1211" y="99" width="150" height="120" as="geometry" />
        </mxCell>
        <mxCell id="8W0M6XuyLA1WG0mMxSoz-54" value="tmp_list_ruta_src_remote_soporte_sga_contratosrvicio" style="swimlane;fontStyle=0;childLayout=stackLayout;horizontal=1;startSize=20;fillColor=#ffffff;horizontalStack=0;resizeParent=1;resizeParentMax=0;resizeLast=0;collapsible=0;marginBottom=0;swimlaneFillColor=#ffffff;" vertex="1" parent="1">
          <mxGeometry x="1370" y="325" width="300" height="51" as="geometry" />
        </mxCell>
        <mxCell id="8W0M6XuyLA1WG0mMxSoz-61" style="edgeStyle=orthogonalEdgeStyle;rounded=0;orthogonalLoop=1;jettySize=auto;html=1;" edge="1" parent="1" source="8W0M6XuyLA1WG0mMxSoz-57" target="8W0M6XuyLA1WG0mMxSoz-1">
          <mxGeometry relative="1" as="geometry" />
        </mxCell>
        <mxCell id="8W0M6XuyLA1WG0mMxSoz-57" value="NIFI_28" style="shape=cylinder3;whiteSpace=wrap;html=1;boundedLbl=1;backgroundOutline=1;size=15;" vertex="1" parent="1">
          <mxGeometry x="1280" y="440" width="90" height="100" as="geometry" />
        </mxCell>
        <mxCell id="8W0M6XuyLA1WG0mMxSoz-58" style="edgeStyle=orthogonalEdgeStyle;rounded=0;orthogonalLoop=1;jettySize=auto;html=1;entryX=1;entryY=0;entryDx=0;entryDy=32.5;entryPerimeter=0;" edge="1" parent="1" source="8W0M6XuyLA1WG0mMxSoz-67" target="8W0M6XuyLA1WG0mMxSoz-57">
          <mxGeometry relative="1" as="geometry" />
        </mxCell>
        <mxCell id="8W0M6XuyLA1WG0mMxSoz-60" style="edgeStyle=orthogonalEdgeStyle;rounded=0;orthogonalLoop=1;jettySize=auto;html=1;entryX=0.93;entryY=0.5;entryDx=0;entryDy=0;entryPerimeter=0;" edge="1" parent="1" source="8W0M6XuyLA1WG0mMxSoz-1" target="8W0M6XuyLA1WG0mMxSoz-7">
          <mxGeometry relative="1" as="geometry" />
        </mxCell>
        <mxCell id="8W0M6XuyLA1WG0mMxSoz-65" style="edgeStyle=orthogonalEdgeStyle;rounded=0;orthogonalLoop=1;jettySize=auto;html=1;entryX=0;entryY=0.5;entryDx=0;entryDy=0;" edge="1" parent="1" source="8W0M6XuyLA1WG0mMxSoz-62" target="8W0M6XuyLA1WG0mMxSoz-63">
          <mxGeometry relative="1" as="geometry" />
        </mxCell>
        <mxCell id="8W0M6XuyLA1WG0mMxSoz-62" value="HDFS&lt;br&gt;210" style="shape=cylinder3;whiteSpace=wrap;html=1;boundedLbl=1;backgroundOutline=1;size=15;" vertex="1" parent="1">
          <mxGeometry x="1280" y="584.5" width="90" height="100" as="geometry" />
        </mxCell>
        <mxCell id="8W0M6XuyLA1WG0mMxSoz-63" value="ctrl_regostro_soporte" style="swimlane;fontStyle=0;childLayout=stackLayout;horizontal=1;startSize=20;fillColor=#ffffff;horizontalStack=0;resizeParent=1;resizeParentMax=0;resizeLast=0;collapsible=0;marginBottom=0;swimlaneFillColor=#ffffff;" vertex="1" parent="1">
          <mxGeometry x="1410" y="609" width="200" height="51" as="geometry" />
        </mxCell>
        <mxCell id="8W0M6XuyLA1WG0mMxSoz-64" style="edgeStyle=orthogonalEdgeStyle;rounded=0;orthogonalLoop=1;jettySize=auto;html=1;entryX=0.5;entryY=0;entryDx=0;entryDy=0;entryPerimeter=0;" edge="1" parent="1" source="8W0M6XuyLA1WG0mMxSoz-57" target="8W0M6XuyLA1WG0mMxSoz-62">
          <mxGeometry relative="1" as="geometry" />
        </mxCell>
        <mxCell id="8W0M6XuyLA1WG0mMxSoz-66" value="inventario donde sea ingestado los insumos" style="shape=note;whiteSpace=wrap;html=1;backgroundOutline=1;darkOpacity=0.05;" vertex="1" parent="1">
          <mxGeometry x="1640" y="550" width="150" height="120" as="geometry" />
        </mxCell>
        <mxCell id="8W0M6XuyLA1WG0mMxSoz-68" value="" style="edgeStyle=orthogonalEdgeStyle;rounded=0;orthogonalLoop=1;jettySize=auto;html=1;entryX=1;entryY=0;entryDx=0;entryDy=32.5;entryPerimeter=0;" edge="1" parent="1" source="8W0M6XuyLA1WG0mMxSoz-54" target="8W0M6XuyLA1WG0mMxSoz-67">
          <mxGeometry relative="1" as="geometry">
            <mxPoint x="1520" y="376" as="sourcePoint" />
            <mxPoint x="1370" y="473" as="targetPoint" />
          </mxGeometry>
        </mxCell>
        <mxCell id="8W0M6XuyLA1WG0mMxSoz-67" value="de crearse la tabla temporal se debe realizar configuracion al NIFI" style="shape=note;whiteSpace=wrap;html=1;backgroundOutline=1;darkOpacity=0.05;" vertex="1" parent="1">
          <mxGeometry x="1420" y="440" width="150" height="120" as="geometry" />
        </mxCell>
      </root>
    </mxGraphModel>
  </diagram>
</mxfile>
